<svg xmlns="http://www.w3.org/2000/svg" width="67" height="32" fill="none"><g fill="#868C98" clip-path="url(#a)"><path d="M3.42551 6.24892c-.43254-1.0993-.24476-2.3633.15367-3.42638C3.99838 1.7039 4.72832.588323 5.81932 0c.05413 1.17883-.30598 2.34349-.69944 3.3937-.35384.94462-.78802 1.95098-1.50495 2.73219-.11017.59193-.19459 1.18223-.25396 1.7698.23762-.62073.62291-1.18651 1.10366-1.64146.61896-.5858 1.53967-1.03782 2.40395-.77052-.25314.95537-.83016 1.87118-1.51353 2.51364-.53788.50566-1.24794 1.15363-2.08429 1.17909-.03445.86466-.01498 1.72146.05617 2.56656.11799-.6184.37079-1.2008.73606-1.6345.50179-.59599 1.24583-1.32409 2.19602-1.20229-.05188.96695-.43758 1.95769-.97471 2.70209-.42682.5916-.99029 1.3456-1.79009 1.5404.12807.8304.30645 1.6471.53277 2.4462.00218-.6119.13733-1.2125.40545-1.6942.37787-.6793.96639-1.5264 1.91768-1.5926.13944.9486-.0495 1.9856-.43064 2.8104-.30461.6593-.71074 1.5-1.45103 1.8478.31088.8598.67874 1.6956 1.10053 2.5022-.14809-.6953-.14216-1.4279.03309-2.0871.2415-.9088.84099-1.8634 1.80344-2.1405.34022 1.0033.29331 2.123.09566 3.1428-.16266.8397-.48225 1.8258-1.19864 2.3712.46836.7558.98648 1.4812 1.55152 2.1714-.30359-.6769-.45447-1.4172-.37351-2.095.11792-.9874.39537-2.0436 1.40391-2.5701.57219.9873.70475 2.0948.75336 3.1887.03929.8844-.0881 1.9752-.7023 2.6946.67561.7025 1.4046 1.3599 2.1832 1.9661-.5026-.6448-.8546-1.4015-.9292-2.1498-.1053-1.0573-.0538-2.2212.8845-2.9971.8024.8381 1.2813 2.0724 1.516 3.1445.2075.9479.4241 2.0698-.0699 3.0026.9909.6468 2.0487 1.2167 3.1671 1.6993-.787-.5608-1.4312-1.3303-1.7381-2.1247-.4022-1.0414-.651-2.2822.1325-3.3251 1.0497.6723 1.8211 1.8194 2.4289 2.8656.5216.8977 1.0614 2.1367.7936 3.2059.6192.2101 1.2544.3946 1.9048.552l-.0386.1597c-.6529-.1581-1.2906-.3432-1.9123-.5539-.4357 1.2873-1.8626 1.7125-3.0167 1.9003-1.6443.2675-3.6022-.2508-5.00602-1.295.74091-1.0471 2.25262-1.1533 3.39252-1.2334l.0148-.001c1.2488-.0878 2.5994.0295 3.8551.3557-1.4507-.5522-2.8081-1.2466-4.0598-2.0628l-.0184.0291c-.6859 1.1122-2.063 1.1556-3.14391 1.0852-1.46676-.0954-3.16017-.9873-4.14026-2.2201.92188-.8088 2.28351-.5825 3.33856-.4071l.0051.0008c1.17754.1958 2.46431.6228 3.54441 1.2803-.1029-.081-.2036-.1667-.3014-.2566-1.0502-.7487-2.0189-1.5862-2.89795-2.4994-.01021.0102-.02056.0204-.03098.0304-.85474.8599-2.09961.6347-3.07112.3549-1.30008-.3745-2.64837-1.5042-3.2945-2.8012 1.00126-.561 2.19834-.0987 3.12947.267 1.02196.4014 2.10322 1.0434 2.9346 1.8619-.08572-.1082-.16749-.2211-.24476-.338-.77277-.8722-1.46792-1.8061-2.07905-2.7914l-.03064.0192c-.96694.624-2.0625.1721-2.93079-.2722-1.17726-.6025-2.1233-1.9267-2.532086-3.2288 1.044356-.3345 2.076186.322 2.878296.842.87728.5686 1.76592 1.3796 2.3759 2.3097-.0448-.0916-.08654-.1853-.125-.2807-.58608-1.0225-1.08399-2.096-1.48705-3.2095l-.02077.0071-.0017.0006c-.87918.3342-1.85825-.1854-2.49654-.7553-.887152-.7919-1.512448-2.0095-1.659035-3.199.916625-.1188 1.780225.5904 2.370655 1.1953.67963.6962 1.2896 1.519 1.66462 2.4329-.02737-.0993-.05087-.2001-.07061-.302-.34124-1.0464-.59976-2.1255-.77018-3.2288l-.01328.0016-.00449.0008c-.9295.1552-1.78887-.5515-2.3023-1.2373-.720337-.9624-1.0916745-2.29435-.9986022-3.50157C.939997 8.50798 1.64502 9.3888 2.10221 10.1013c.52916.8249.96797 1.7584 1.16017 2.735-.00585-.0777-.00933-.1559-.01055-.2342-.14114-1.1229-.19146-2.2688-.14543-3.42879l-.00266-.00014c-.94502-.03404-1.64344-.91145-2.00401-1.68973C.583777 6.3697.500713 4.96191.845087 3.77546c.900703.2528 1.402823 1.28599 1.699203 2.08129.34172.91697.58022 1.91707.58213 2.91139.04915-.83418.14815-1.67497.29909-2.51922ZM22.0381 4.19092v3.98284c0 1.75176-1.5866 2.59454-3.9911 2.59454-2.2476 0-3.8589-.83447-3.8589-2.80111V4.19092h2.2393v3.77627c0 .70237.6032 1.14029 1.7105 1.14029 1.0577 0 1.6857-.45447 1.6857-1.13205V4.19092h2.2145ZM29.4961 8.95048v1.72702H23.307V4.19092h2.2393v4.75956h3.9498ZM36.151 5.81876V4.19092h-7.7426v1.62784h2.7352v4.85874h2.2641V5.81876h2.7433Z"/><path fill-rule="evenodd" d="M44.0939 4.85202c.2975.30571.4385.72715.4385 1.31377 0 .50411-.1239.93379-.3309 1.22295-.2315.31401-.5869.57845-1.0247.64456l1.9588 2.6442H42.673l-1.6116-2.28893h-2.0077v2.28893h-2.2063V4.19092h5.1645c1.0247 0 1.6939.2479 2.082.6611Zm-1.7845 1.85921c.0579-.0992.0742-.23143.0742-.3388 0-.12398-.0163-.2562-.0742-.33879-.1157-.21487-.3472-.27268-.6945-.27268h-2.553v1.18162h2.5946c.3554 0 .5705-.06611.6529-.23135ZM48.1164 9.47936h3.5037l.5699 1.19814h2.3884l-3.2722-6.48658h-2.6689l-3.4621 6.48658h2.338l.6032-1.19814ZM50.9175 8.025h-2.0739l.8184-1.56167.2478-.595.2315.58669.7762 1.56998ZM43.8577 11.8991c-1.3862 0-2.1154.657-2.1154 1.6225 0 1.0897.7653 1.6425 2.1154 1.6425 1.4863 0 2.1113-.641 2.1113-1.6425 0-1.0176-.7053-1.6225-2.1113-1.6225Zm0 2.4598c-.7891 0-1.0179-.3245-1.0179-.8253 0-.4927.2486-.8172 1.0138-.8172.8375 0 1.0254.3645 1.0254.8172 0 .4808-.2281.8253-1.0213.8253Z" clip-rule="evenodd"/><path d="M39.6877 15.116v-1.8628h-2.0911v.677h1.1177c-.008.0521-.0481.1522-.1002.2123-.1161.1362-.4246.2564-.8253.2564-.4166 0-.685-.1082-.8292-.2764-.0961-.1242-.1522-.3005-.1522-.5649 0-.2764.0561-.4646.1642-.5888.1563-.1763.4206-.2524.8093-.2524.3485 0 .5888.0801.7011.1802.0721.0601.1281.1443.1401.2003h1.0376c-.004-.1001-.036-.2603-.0921-.3765-.2484-.5048-.8253-.8052-1.8067-.8052-.8534 0-1.4262.2603-1.7427.653-.2083.2684-.3045.6048-.3045.9814 0 .4167.1122.7732.2965 1.0096.3124.4046.8693.6048 1.5383.6048.5889 0 .9935-.1401 1.2499-.3524l.0281.3044h.8612ZM28.775 13.2132c.8132.0881 1.1617.3765 1.1617.9254 0 .665-.6489 1.0255-1.9269 1.0255-1.1898 0-1.7025-.3365-1.8989-.7772-.044-.1041-.0641-.2323-.0761-.3125h1.1538c.008.0481.036.1202.0761.1683.0961.1162.3645.1843.8212.1843.589 0 .7291-.0842.7291-.2404 0-.1683-.1442-.2043-.677-.2604-.2123-.02-.5488-.0521-.689-.0641-1.0175-.0921-1.3941-.4086-1.3941-.9494 0-.5609.665-.9895 1.8788-.9895 1.0776 0 1.5784.3205 1.7867.7211.0641.1202.1041.2563.1162.3525h-1.1538c-.004-.0441-.02-.0881-.064-.1442-.0882-.1162-.3126-.1923-.7132-.1923-.5648 0-.713.0681-.713.2123 0 .1603.1883.1964.8172.2644.2444.0201.633.0601.7652.0762Z"/><path fill-rule="evenodd" d="M17.2736 12.2396c.2123.1683.3325.4527.3325.8653 0 .3366-.0841.5889-.2444.7652-.2163.2484-.5728.3606-1.0375.3646-.1443.004-1.3781 0-1.3781 0v.8813h-1.0777v-3.1447h2.4397c.4327 0 .7612.0881.9655.2683Zm-.7972 1.1097c.032-.056.0481-.1282.0481-.2284 0-.1041-.0201-.1922-.0561-.2403-.0681-.1002-.1963-.1482-.4047-.1482H14.938v.7691h1.1177c.2244 0 .3566-.0521.4207-.1522ZM21.5482 12.2917c.1443.1482.2124.3526.2124.637 0 .2443-.0601.4527-.1603.5928-.1121.1523-.2844.2805-.4967.3126l.9494 1.2819h-1.1938l-.7812-1.1097h-.9735v1.1097h-1.0696v-3.1447h2.5038c.4968 0 .8213.1201 1.0095.3204Zm-.8653.9014c.0281-.0481.0361-.1122.0361-.1643 0-.06-.008-.1242-.0361-.1642-.0561-.1042-.1682-.1322-.3364-.1322h-1.238v.5728h1.258c.1722 0 .2764-.032.3164-.1121Z" clip-rule="evenodd"/><path d="M25.71 15.116v-.7812h-2.2554v-.4086h2.1633v-.7652h-2.1633v-.4046h2.2273v-.7851H22.397v3.1447h3.313ZM33.8351 12.7604v-.7891h-3.7537v.7891h1.326v2.3556h1.0976v-2.3556h1.3301ZM35.2784 11.9713v3.1447h-1.1016v-3.1447h1.1016ZM41.3072 11.9713v3.1447h-1.1019v-3.1447h1.1019ZM50.2195 11.9713v1.9308c0 .8493-.7693 1.258-1.9349 1.258-1.0894 0-1.871-.4046-1.871-1.3581v-1.8307h1.0859v1.8307c0 .3405.2921.5528.8293.5528.5127 0 .817-.2203.817-.5488v-1.8347h1.0737ZM54.5444 14.1386c0-.5489-.3486-.8373-1.1615-.9254-.1328-.0161-.5209-.0561-.7653-.0762-.6291-.068-.8177-.1041-.8177-.2644 0-.1442.1484-.2123.7135-.2123.4004 0 .6251.0761.7129.1923.0442.0561.0599.1001.064.1442h1.154c-.0122-.0962-.0524-.2323-.1164-.3525-.2083-.4006-.7088-.7211-1.7865-.7211-1.214 0-1.8792.4286-1.8792.9895 0 .5408.3772.8573 1.3944.9494l.0653.0058.109.01.5147.0483c.5331.0561.6768.0921.6768.2604 0 .1562-.1396.2404-.7285.2404-.4569 0-.7251-.0681-.8218-.1843-.0395-.0481-.0681-.1202-.0756-.1683h-1.154c.0122.0802.032.2084.0762.3125.1961.4407.7088.7772 1.8989.7772 1.278 0 1.9268-.3605 1.9268-1.0255Z"/><path fill-rule="evenodd" d="M26.5305 16.3201c-.9009 0-1.3747.427-1.3747 1.0545 0 .7081.4973 1.0674 1.3747 1.0674.966 0 1.3721-.4165 1.3721-1.0674 0-.6613-.4582-1.0545-1.3721-1.0545Zm0 1.5986c-.5129 0-.6613-.2109-.6613-.5364 0-.3202.1614-.5311.6587-.5311.5441 0 .6665.2369.6665.5311 0 .3125-.1484.5364-.6639.5364Z" clip-rule="evenodd"/><path d="M21.5207 17.7756c0-.3567-.2265-.5443-.7551-.6015-.0859-.0104-.3384-.0364-.4973-.0494-.4087-.0444-.5311-.0678-.5311-.1719 0-.0937.0964-.138.4635-.138.2603 0 .4061.0494.4634.1249.0286.0365.039.0651.0417.0938h.7498c-.0078-.0625-.0338-.151-.0755-.2291-.1354-.2604-.4609-.4686-1.1612-.4686-.7889 0-1.2211.2785-1.2211.643 0 .3515.2447.5572.906.6171.0912.0078.3099.0286.4479.0416.3463.0365.44.06.44.1693 0 .1015-.0911.1562-.4739.1562-.2968 0-.4712-.0443-.5337-.1198-.026-.0312-.0443-.0781-.0495-.1093h-.7499c.0079.0521.0209.1353.0495.2031.1276.2863.4609.505 1.2341.505.8306 0 1.2524-.2342 1.2524-.6664Z"/><path fill-rule="evenodd" d="M16.3221 17.8328c0 .1406-.0391.2786-.1171.3697-.1198.1459-.3437.2083-.6327.2083h-1.8147v-2.0439h1.7652c.2812 0 .4609.0678.5598.1693.0885.0885.1276.2057.1276.3385 0 .1328-.0313.2421-.0989.3228-.0548.0678-.1485.1198-.2474.1328.1458.0182.2838.0911.3619.1927.0651.0755.0963.1901.0963.3098Zm-.8774-.716c.026-.0286.0417-.0703.0417-.1197 0-.0495-.0157-.0912-.0495-.1198-.0364-.0339-.1042-.0469-.2031-.0469h-.7941v.3333h.8123c.0885 0 .1563-.013.1927-.0469Zm-.1172.8306c.1224 0 .1953-.0157.237-.0547.026-.026.0364-.0651.0364-.1146 0-.052-.013-.0911-.0443-.1223-.039-.0338-.1067-.0495-.2212-.0495h-.8957v.3411h.8878Z" clip-rule="evenodd"/><path d="M18.7738 17.9031v.5077h-2.1532v-2.0439h2.1349v.5104h-1.4476v.263h1.406v.4972h-1.406v.2656h1.4659ZM24.0543 16.3669v.513h-.8644v1.5309h-.7133v-1.5309h-.8619v-.513h2.4396ZM30.2851 16.3669v.5182h-1.3877v.289H30.22v.5129h-1.3226v.7238h-.7004v-2.0439h2.0881ZM33.8127 16.8799v-.513h-2.4395v.513h.8618v1.5309h.7134v-1.5309h.8643ZM36.4746 16.3669v2.0439h-.6978v-.742h-1.0467v.742h-.6978v-2.0439h.6978v.7447h1.0467v-.7447h.6978ZM39.0409 18.4108v-.5077H37.575v-.2656h1.406v-.4972h-1.406v-.263h1.4476v-.5104h-2.1349v2.0439h2.1532ZM43.3573 16.3669h.6741l-.7469 2.0439h-.7653s-.4092-1.221-.4119-1.255c-.0021.034-.414 1.255-.414 1.255h-.7625l-.7655-2.0439h.7573s.4432 1.2862.4432 1.3175c0-.0313.4085-1.3175.4085-1.3175h.732s.4112 1.2862.4112 1.3175c0-.0313.4398-1.3175.4398-1.3175Z"/><path fill-rule="evenodd" d="M45.3685 16.3201c-.9007 0-1.3746.427-1.3746 1.0545 0 .7081.497 1.0674 1.3746 1.0674.9662 0 1.372-.4165 1.372-1.0674 0-.6613-.4583-1.0545-1.372-1.0545Zm0 1.5986c-.5126 0-.6611-.2109-.6611-.5364 0-.3202.1614-.5311.6584-.5311.5447 0 .6666.2369.6666.5311 0 .3125-.1485.5364-.6639.5364ZM49.3189 16.5753c.0932.0963.1375.2291.1375.4139 0 .1589-.0388.2942-.1042.3854-.0728.0989-.1845.1823-.3227.203l.6168.8332h-.7754l-.508-.7212h-.6325v.7212h-.6951v-2.0439h1.6272c.3227 0 .5338.0782.6564.2084Zm-.5624.5858c.0177-.0313.0231-.0729.0231-.1068 0-.039-.0054-.0806-.0231-.1067-.0368-.0677-.1096-.0859-.2193-.0859h-.804v.3723h.817c.1123 0 .1797-.0208.2063-.0729Z" clip-rule="evenodd"/><path d="M51.8202 18.4108v-.5441h-1.2446v-1.4998h-.7054v2.0439h1.95Z"/><path fill-rule="evenodd" d="M54.5812 17.3511c0 .3177-.0314.4895-.1246.651-.141.2577-.4194.4087-.9117.4087h-1.4475v-2.0439h1.4318c.4896 0 .7789.1381.9219.375.1015.1588.1301.328.1301.6092Zm-1.1691.5572c.2213 0 .3466-.0521.4222-.1666.0469-.0703.0599-.2343.0599-.3775-.0027-.1302-.0184-.2682-.0599-.3307-.0811-.1224-.2029-.1666-.4167-.1666h-.6223v1.0414h.6168Z" clip-rule="evenodd"/><path d="M26.6519 28.351H25.573s-.704 2.0578-.704 2.1078c0-.05-.6582-2.1078-.6582-2.1078h-1.1705s-.6541 2.0578-.6541 2.1078c0-.05-.7081-2.1078-.7081-2.1078h-1.2123l1.2247 3.27h1.2206s.6582-1.9537.6623-2.0078c.0042.0541.6582 2.0078.6582 2.0078h1.2247l1.1956-3.27ZM28.1283 31.621v-3.27h-1.1456v3.27h1.1456ZM32.5841 28.351v3.27h-1.1165l-1.6204-1.8204v1.8204h-1.0747v-3.27h1.1746l1.5705 1.7787V28.351h1.0665ZM37.0467 31.621v-3.27h-1.0664v1.7787l-1.5705-1.7787h-1.1747v3.27h1.0747v-1.8204l1.6205 1.8204h1.1164ZM41.1431 30.8087v.8123h-3.4453v-3.27h3.4161v.8164h-2.3164v.4208h2.2496v.7956h-2.2496v.4249h2.3456Z"/><path fill-rule="evenodd" d="M45.5462 29.3466c0-.2958-.0708-.5082-.2206-.6624-.1961-.2082-.5331-.3332-1.0499-.3332h-2.6036v3.27h1.1125v-1.1539h1.0125l.8122 1.1539h1.2412l-.9872-1.333c.2206-.0333.3996-.1666.5167-.3249.1035-.1458.1662-.3624.1662-.6165Zm-1.0833.1041c0 .0542-.0081.1208-.0374.1708-.0416.0833-.1498.1166-.3289.1166h-1.3079v-.5957h1.2868c.175 0 .2921.0292.35.1375.0293.0417.0374.1083.0374.1708Z" clip-rule="evenodd"/><path d="m23.3256 22.5817-.4517-1.3904-.4518 1.3904h-1.462l1.1828.8593-.4518 1.3905 1.1828-.8593 1.1827.8593-.4518-1.3905 1.1828-.8593h-1.462ZM28.0895 21.1904l.461 1.3904h1.4919l-1.2069.8594.461 1.3903-1.207-.8593-1.2068.8593.461-1.3903-1.207-.8594h1.4918l.461-1.3904ZM33.7246 22.5808l-.4609-1.3904-.461 1.3904h-1.4919l1.2069.8594-.461 1.3903 1.207-.8593 1.2069.8593-.4611-1.3903 1.207-.8594h-1.4919ZM38.438 21.1904l.461 1.3904h1.4919l-1.2069.8594.461 1.3903-1.207-.8593-1.2068.8593.461-1.3903-1.207-.8594h1.4919l.4609-1.3904ZM44.1056 22.5808l-.4521-1.3904-.4521 1.3904h-1.4618l1.1827.8594-.4514 1.3903 1.1826-.8593 1.1826.8593-.4514-1.3903 1.1827-.8594h-1.4618ZM63.0727 6.27909c.4323-1.09924.2444-2.36338-.1539-3.42646-.4194-1.11857-1.1493-2.234277-2.24-2.8226007-.0545 1.1788907.3057 2.3434907.6992 3.3937007.3541.94455.7878 1.95084 1.5047 2.73198.1103.5918.1947 1.18196.254 1.7694-.2377-.62046-.6223-1.18598-1.103-1.64078-.6189-.58588-1.5401-1.03782-2.4041-.77052.2533.9553.83 1.87118 1.5135 2.51363.5379.50567 1.248 1.15357 2.0841 1.1791.0348.86476.015 1.72156-.0565 2.56676-.1178-.6184-.3704-1.2008-.736-1.6345-.5018-.59606-1.2459-1.32409-2.1957-1.20229.0517.96695.4378 1.95769.975 2.70209.4262.5916.9899 1.3456 1.7899 1.5404-.128.8303-.3064 1.6469-.5331 2.4459-.002-.6118-.1369-1.2124-.4051-1.6941-.3779-.6792-.9668-1.5264-1.918-1.5926-.1395.9486.0497 1.9856.431 2.8104.3044.6593.7108 1.5 1.4509 1.8478-.3111.8599-.6788 1.6959-1.1009 2.5026.1484-.6954.1423-1.4282-.0327-2.0876-.2417-.9088-.8409-1.8635-1.8036-2.1405-.3404 1.0035-.2934 2.1231-.0953 3.1429.1627.8397.482 1.8258 1.1983 2.3712-.4684.7562-.9866 1.482-1.5523 2.1725.3043-.6772.4548-1.4179.3737-2.0959-.1177-.9876-.3949-2.0438-1.4032-2.5701-.5726.9873-.7054 2.0948-.7537 3.1887-.0395.8845.0878 1.9753.7026 2.6948-.676.7023-1.4046 1.3595-2.1828 1.9656.5025-.6448.8545-1.4015.9287-2.1497.1055-1.0573.0545-2.2212-.8844-2.9971-.8021.8381-1.2814 2.0724-1.5156 3.1445-.2076.9478-.4242 2.0698.0695 3.0026-.9907.6469-2.0487 1.2169-3.1674 1.6996.7871-.5609 1.4312-1.3304 1.7383-2.125.4023-1.0413.6509-2.2822-.1321-3.3251-1.0499.6723-1.8213 1.8193-2.4293 2.8656-.5215.8978-1.0615 2.1369-.7932 3.206-.6196.2101-1.2548.3946-1.905.552l.0388.1597c.6522-.158 1.2902-.3432 1.9118-.5539.4358 1.2872 1.8628 1.7126 3.0169 1.9003 1.6442.2675 3.6024-.2507 5.0063-1.2949-.7415-1.0471-2.253-1.1533-3.3927-1.2335l-.015-.001c-1.2487-.0877-2.5995.0295-3.855.3558 1.4502-.5522 2.8079-1.2467 4.0599-2.063l.0171.0272c.6856 1.114 2.0636 1.1576 3.1448 1.0872 1.4673-.0955 3.1605-.9873 4.1403-2.2201-.9219-.8087-2.2829-.5825-3.3382-.4072l-.0055.001c-1.1772.1957-2.4633.6225-3.5431 1.2798.1028-.081.2029-.1666.3009-.2564 1.0499-.7486 2.018-1.5859 2.897-2.499.0123.0122.0245.0242.0368.0361.8551.8532 2.0963.6281 3.0659.3489 1.3004-.3745 2.6485-1.5042 3.2946-2.8012-1.0015-.561-2.1985-.0988-3.1292.267-1.0233.4017-2.1052 1.0445-2.9372 1.864.0858-.1082.1682-.2214.2458-.3385.7728-.8726 1.4686-1.8071 2.08-2.793l.0266.0164.0068.0043c.9661.6218 2.0609.1703 2.9283-.2738 1.1772-.6024 2.1236-1.9266 2.5321-3.2287-1.0444-.3345-2.0759.322-2.878.842-.8783.5689-1.7675 1.3805-2.3775 2.3113.0449-.0918.0872-.1858.126-.2815.5862-1.0228 1.0839-2.0965 1.4869-3.2103l.0211.0071.0035.0013c.8789.3328 1.8573-.1865 2.4953-.756.8864-.7919 1.5121-2.0095 1.6585-3.199-.9164-.1188-1.7804.5904-2.3707 1.1952-.6795.6967-1.2902 1.52-1.6654 2.4347.0279-.0998.0518-.2012.0715-.3037.3411-1.0463.5999-2.1254.7701-3.2285l.0258.0034c.926.1499 1.7825-.5547 2.2945-1.2386.7203-.9624 1.0914-2.29435.9981-3.50164-.9252.06482-1.6306.94557-2.0875 1.65814-.5297.8253-.9688 1.7593-1.1608 2.7366.0061-.0782.0095-.1568.0109-.2356.1409-1.123.1913-2.2689.145-3.42892.9457-.03316 1.6463-.91119 2.0072-1.68981.5154-1.11367.5984-2.52153.2546-3.70791-.9008.2528-1.4032 1.28585-1.6994 2.08115-.3418.91697-.5801 1.91721-.5821 2.91153-.0491-.83418-.1485-1.67503-.2989-2.51935Z"/></g><defs><clipPath id="a"><path fill="#fff" d="M0 0h66.7234v32H0z"/></clipPath></defs></svg>