<svg xmlns="http://www.w3.org/2000/svg" width="40" height="32" fill="none"><path fill="#868C98" d="M12.4391 10.8254V9.51794h-.7269v1.24236c0 .2224-.2062.3716-.5534.3716-.3634 0-.5615-.1438-.5615-.3743V9.51794h-.73507v1.23966c0 .6455.52897.9195 1.26677.9195.7893 0 1.3101-.2767 1.3101-.8517ZM14.8873 11.6473v-.5669h-1.2965V9.51794h-.7351v2.12936h2.0316ZM17.072 10.0523v-.53436h-2.5416v.53436h.8978v1.595h.7432v-1.595h.9006ZM18.0493 11.6473V9.51794h-.746v2.12936h.746ZM21.4716 11.6473V9.51794h-.9196l-.5805 1.27766-.5533-1.27766h-.9494v2.12936h.6917v-1.1501l.4991 1.1501h.6185l.5045-1.1501v1.1501h.689ZM22.6237 11.2539h1.1501l.1872.3934h.7839l-1.0742-2.12936h-.8761l-1.1365 2.12936h.7676l.198-.3934Zm.9195-.4774h-.6808l.2685-.5126.0814-.1953.076.1926.2549.5153ZM27.0505 10.0523v-.53436H24.509v.53436h.8978v1.595h.7433v-1.595h.9004ZM29.5222 11.6473v-.529h-1.5266v-.2767h1.4643v-.518h-1.4643v-.274h1.5078v-.53166h-2.224v2.12936h2.2428ZM15.4059 12.7792h-.7026s-.4584 1.3399-.4584 1.3725c0-.0326-.4286-1.3725-.4286-1.3725h-.7622s-.4259 1.3399-.4259 1.3725c0-.0326-.4611-1.3725-.4611-1.3725h-.7893l.7975 2.1293h.7947s.4286-1.2722.4313-1.3074c.0027.0352.4286 1.3074.4286 1.3074h.7975l.7785-2.1293ZM16.3672 14.9085v-2.1293h-.746v2.1293h.746ZM19.2687 14.9085v-2.1293h-.6944v1.1582l-1.0226-1.1582h-.765v2.1293h.6999v-1.1854l1.0551 1.1854h.727ZM22.1746 14.9085v-2.1293h-.6944v1.1582l-1.0227-1.1582h-.7649v2.1293h.6998v-1.1854l1.0552 1.1854h.727ZM24.8418 14.9085v-.5289h-1.5272v-.2767h1.4648v-.5181h-1.4648v-.274h1.5082v-.5316h-2.2243v2.1293h2.2433ZM27.7092 13.4275c0-.1926-.0463-.331-.144-.4313-.1274-.1356-.347-.217-.6835-.217h-1.6952v2.1293h.7243v-.7513h.6591l.5291.7513h.8083l-.6427-.868c.1434-.0217.2604-.1085.336-.2116.0678-.0949.1086-.236.1086-.4014Zm-.7051.0678c0 .0353-.0055.0786-.0248.1112-.027.0542-.0976.076-.2141.076h-.8517v-.388h.838c.1142 0 .1903.019.2278.0896.0193.0271.0248.0705.0248.1112ZM12.7449 17.0034V15.963h-.2539v1.0241c0 .2416-.2274.3789-.5551.3789-.3871 0-.5776-.1475-.5776-.381v-1.022h-.256v1.0138c0 .426.3318.6145.8234.6145.5079 0 .8192-.2008.8192-.5879ZM14.5672 17.5708v-.2355h-1.108V15.963h-.256v1.6078h1.364ZM16.022 16.1964v-.2334h-1.7082v.2334h.725v1.3744h.2581v-1.3744h.7251ZM17.8425 16.4176c0-.1147-.0246-.1986-.0676-.2662-.0758-.1127-.2212-.1884-.4629-.1884h-1.0405v1.6078h.2519v-.678h.7333l.4485.678h.295l-.4854-.721c.1228-.0143.2191-.084.2703-.1741.0369-.0614.0574-.1515.0574-.2581Zm-.254.0205c0 .0451-.0102.1004-.0287.1373-.0327.0593-.1085.0901-.2314.0921h-.8029v-.4751h.7558c.1536 0 .2355.0368.2785.1064.0185.0328.0287.0881.0287.1393ZM18.5714 17.1734h1.0016l.2048.3974h.2745l-.8153-1.6078h-.301l-.8419 1.6078h.2683l.209-.3974Zm.895-.2273h-.7844l.3256-.6165.0717-.1495.0717.1495.3154.6165ZM22.6499 17.4172c.0635-.0738.0922-.1782.0922-.2909 0-.1065-.0307-.213-.0942-.2785-.0635-.0615-.1659-.1127-.2786-.1229.0656-.0103.1168-.0512.1516-.0943.0553-.0635.088-.1659.088-.2683 0-.1085-.0327-.2069-.1024-.2744-.0757-.0758-.2048-.1249-.385-.1249H21.04v1.6078h1.1614c.2171 0 .3686-.0553.4485-.1536Zm-.3052-1.0037c0 .0717-.0225.1352-.0614.1721-.039.043-.1045.0614-.1741.0614h-.8193v-.4629h.7722c.0942 0 .1659.0185.215.0635.0431.041.0676.1004.0676.1659Zm.0819.848c-.0512.0574-.1392.0861-.2683.0861h-.8684v-.4773h.8746c.1188 0 .2007.0246.2499.0717.045.043.0635.0983.0635.1618 0 .0656-.0143.1208-.0513.1577ZM24.6015 17.5708v-.2355h-1.2493v-.4589h1.2002v-.2334h-1.2002v-.4466h1.235v-.2334h-1.485v1.6078h1.4993ZM26.6025 17.0956c0-.2622-.1738-.3974-.602-.4465-.0718-.0102-.2275-.0266-.3115-.0369-.3974-.0471-.5182-.1003-.5182-.2376 0-.1331.1331-.2089.5346-.2089.3112 0 .4711.0615.5511.172.0227.0308.0348.0677.0409.0963h.2742c-.0077-.0471-.0265-.1126-.0552-.1659-.1103-.1904-.3376-.3277-.811-.3277-.5653-.0021-.7988.2028-.7988.4568 0 .2539.1823.383.6554.4383.082.0102.2273.0266.2991.0348.3668.045.4815.1004.4815.254 0 .1413-.1313.2437-.5512.2437-.3441 0-.5284-.0614-.6022-.1802-.0225-.0328-.0368-.084-.0389-.1188h-.2704c.0062.0737.0267.1536.0635.2171.1066.1946.3565.3072.8398.3072.5776 0 .8193-.1864.8193-.4977ZM28.4392 16.1964v-.2334H26.731v.2334h.725v1.3744h.2582v-1.3744h.725ZM10.3773 18.9683c0-.1639-.0328-.2745-.0881-.3585-.0778-.1209-.2294-.1843-.49366-.1843H8.77965v1.6078h.25395v-.5243h.75173c.24787-.0021.41787-.0594.50797-.1905.0573-.0799.084-.1946.084-.3502Zm-.2581 0c0 .0818-.0082.1433-.0348.1843-.0472.0757-.14343.1229-.34211.1229H9.0336v-.6206h.71692c.18637 0 .28268.043.33388.1269.0245.0369.0348.1045.0348.1865ZM12.2312 20.0333v-.2355h-1.2495v-.4588h1.2003v-.2335h-1.2003v-.4465h1.2351v-.2335h-1.4849v1.6078h1.4993ZM14.185 18.8802c0-.1148-.0245-.1987-.0675-.2663-.0759-.1127-.2212-.1884-.4629-.1884h-1.0405v1.6078h.2519v-.6779h.7333l.4485.6779h.295l-.4855-.721c.1229-.0143.2192-.084.2704-.1741.0369-.0614.0573-.1515.0573-.258Zm-.2539.0204c0 .0451-.0103.1004-.0287.1373-.0328.0594-.1086.0901-.2315.0921h-.8029v-.4751h.7558c.1536 0 .2356.0368.2786.1065.0184.0327.0287.088.0287.1392ZM16.084 18.659v-.2335h-1.4297v1.6078h.2539v-.6841h1.1225v-.2396h-1.1225v-.4506h1.1758ZM17.2497 18.3968c-.3421 0-.5776.084-.7456.2601-.1413.1372-.2027.3278-.2027.5674 0 .2621.0798.4588.2273.5919.1578.1577.3994.2396.721.2396.3318 0 .5899-.0819.7435-.2478.1332-.1352.2028-.3277.2028-.5858 0-.2499-.0594-.4404-.2007-.5755-.1619-.168-.4036-.2499-.7456-.2499Zm0 1.4297c-.2253 0-.3851-.0492-.5059-.1475-.1229-.1004-.1823-.254-.1823-.4507 0-.1843.0512-.3379.1495-.4301.1127-.1065.2847-.17.5367-.17.2601 0 .4219.0615.5427.168.1025.0901.1475.2499.1475.4301 0 .1823-.0471.338-.1516.4322-.1208.1126-.2908.168-.5366.168ZM20.1177 18.8802c0-.1148-.0246-.1987-.0676-.2663-.0758-.1127-.2212-.1884-.4628-.1884h-1.0405v1.6078h.2519v-.6779h.7332l.4486.6779h.2949l-.4854-.721c.1229-.0143.2192-.084.2704-.1741.0369-.0614.0573-.1515.0573-.258Zm-.254.0204c0 .0451-.0102.1004-.0286.1373-.0328.0594-.1086.0901-.2315.0921h-.8029v-.4751h.7558c.1536 0 .2356.0368.2786.1065.0184.0327.0286.088.0286.1392ZM22.5676 20.0333v-1.6078h-.3318l-.6616 1.3231-.6493-1.3231h-.3379v1.6078h.2437v-1.2371l.6063 1.2371h.2662l.6207-1.2371v1.2371h.2437ZM23.2869 19.636h1.0016l.2048.3973h.2745l-.8152-1.6078h-.3011l-.8418 1.6078h.2683l.2089-.3973Zm.8951-.2274h-.7845l.3257-.6165.0717-.1495.0716.1495.3155.6165ZM26.613 20.0333v-1.6078h-.2439v1.2494l-1.0648-1.2494h-.2889v1.6078h.2479v-1.2576l1.0732 1.2576h.2765ZM28.8226 19.4332h-.2665c-.0082.0737-.0369.1475-.0882.2028-.1104.129-.2864.1843-.5567.1843-.2273 0-.4712-.0635-.5882-.2294-.0612-.0778-.1004-.1925-.1004-.3646 0-.1536.0271-.2683.0861-.3461.0982-.1577.3051-.2397.5964-.2397.2825 0 .4607.0778.555.1864.053.0573.0839.125.0938.2048h.2665c-.0083-.0901-.037-.1966-.0982-.2867-.1313-.1946-.373-.3482-.8154-.3482-.4216 0-.6737.1352-.8133.3379-.0899.1168-.1352.2806-.1352.4896 0 .2335.0558.4055.1518.5264.1396.1905.4077.3051.8132.3051.416 0 .6637-.1249.7868-.3236.0695-.0962.1042-.2109.1125-.299ZM30.6554 20.0333v-.2355h-1.2496v-.4588h1.2005v-.2335h-1.2005v-.4465h1.2353v-.2335h-1.4852v1.6078h1.4995ZM11.9238 21.6306l.3063.9427h.9913l-.802.5827.3063.9427-.8019-.5826-.802.5826.3063-.9427-.8019-.5827h.9912l.3064-.9427ZM15.4601 21.6306l.3125.9427h1.0116l-.8183.5827.3125.9428-.8183-.5827-.8183.5827.3125-.9428-.8183-.5827h1.0115l.3126-.9427ZM18.9684 21.6306l.3126.9427h1.0115l-.8183.5827.3126.9428-.8184-.5827-.8183.5827.3126-.9428-.8184-.5827h1.0116l.3125-.9427ZM22.4769 21.6306l.3126.9427h1.0115l-.8183.5827.3125.9428-.8183-.5827-.8183.5827.3125-.9428-.8183-.5827h1.0115l.3126-.9427ZM26.0132 21.6306l.3062.9427h.9915l-.8022.5827.3062.9428-.8017-.5827-.802.5827.3064-.9428-.802-.5827h.9913l.3063-.9427ZM13.6419 5.72479l.2316.71283h.7496l-.6064.44055.2316.71277-.6064-.44049-.6063.44049.2316-.71277-.6064-.44055h.7496l.2315-.71283ZM16.3158 5.72382l.2363.71282h.7648l-.6187.44056.2363.71277-.6187-.44055-.6188.44055.2364-.71277-.6188-.44056h.7648l.2364-.71282ZM18.9683 5.72382l.2363.71282h.7648l-.6187.44056.2363.71277-.6187-.44055-.6187.44055.2363-.71277-.6187-.44056h.7648l.2363-.71282ZM21.6213 5.72382l.2363.71282h.7648l-.6187.44056.2363.71277-.6187-.44055-.6188.44055.2364-.71277-.6188-.44056h.7648l.2364-.71282ZM24.2947 5.72382l.2316.71282h.7495l-.6063.44056.2316.71277-.6064-.44055-.6064.44055.2316-.71277-.6063-.44056h.7495l.2316-.71282Z"/><path fill="#868C98" fill-rule="evenodd" d="M2.96629 18.5547C1.94417 12.1597 4.92723 5.83268 10.8991 3.11566l.0552.12116C5.04243 5.92647 2.08403 12.1916 3.09771 18.5337 4.2192 25.5501 9.87956 29.7581 16.8111 29.961l-.0039.1331c-6.98557-.2045-12.70789-4.4505-13.84091-11.5394Z" clip-rule="evenodd"/><path fill="#868C98" d="M9.60431 4.74766c-1.10362.02516-2.39526.6475-3.15741 1.55145.6112.56756 1.5946.35774 2.30229.24166 1.01004-.16563 2.08411-.48652 3.03721-.94075-.3919-.83421-1.4475-.86908-2.18209-.85236Z"/><path fill="#868C98" d="M8.7364 3.38623C8.08272 4.4045 7.30368 5.41652 6.4559 6.30772c-.70929-.66582-.28116-1.77385.00833-2.46289.52442-1.24856 1.78174-2.32524 3.09622-2.876141.36077.820801-.42284 1.792551-.82405 2.417541ZM6.4107 7.60315c-1.03338.36734-1.92138 1.40138-2.36723 2.43955.74306.3454 1.58781-.15348 2.20579-.48568.84856-.45616 1.71427-1.08557 2.39543-1.81395-.61545-.64938-1.54996-.38301-2.23399-.13992Z"/><path fill="#868C98" d="M5.15807 6.58564c-.22621 1.16138-.60547 2.36513-1.10356 3.46226-.86941-.41001-.83631-1.58441-.79906-2.33177.06355-1.27564.77721-2.73032 1.77081-3.65479.60827.65214.27592 1.7845.13181 2.5243ZM4.42235 11.2897c-.86108.6792-1.38301 1.9381-1.50389 3.0622.81456.0936 1.46565-.6477 1.95012-1.1563.65959-.6925 1.28397-1.561 1.6805-2.4696-.7765-.4237-1.56585.1212-2.12673.5637Z"/><path fill="#868C98" d="M2.93048 10.7162c.15354 1.1728.15387 2.4416.00027 3.6373-.94731-.1163-1.26151-1.2538-1.44711-1.9673-.32044-1.2317-.1056-2.82264.51862-4.01999.78008.43184.83012 1.60039.92822 2.34999ZM3.74659 15.3137c-.68138.9981-.92099 2.5623-.61456 3.8195.90041-.2131 1.34676-1.2326 1.70516-1.9525.4763-.9569.87889-2.0732 1.02301-3.1684-.97661-.2033-1.66478.6438-2.11361 1.3014Z"/><path fill="#868C98" d="M1.95791 15.2128c.53087 1.229.94516 2.5818 1.18758 3.9174-1.03266.2219-1.77589-.8625-2.207664-1.5815-.768718-1.2799-.9926619-3.0542-.711062-4.5853.945156.1895 1.407666 1.5007 1.731146 2.2494ZM4.22322 19.6563c-.36585 1.2109-.11156 2.8569.62918 3.9952.81402-.5299.92668-1.6964 1.04205-2.5328.15211-1.1036.22372-2.3262.03476-3.4707-1.04116.1329-1.46163 1.1995-1.70599 2.0083Z"/><path fill="#868C98" d="M2.4139 20.1747c.91344 1.0481 1.75603 2.2432 2.45093 3.469-.94246.5884-2.04839-.2154-2.71912-.7842C.955806 21.8504.183172 20.1354 0 18.5185c.990234-.1331 1.8629 1.0239 2.4139 1.6562ZM6.14295 23.7775c.07851 1.4094.99609 2.8883 2.21782 3.73.59002-.8077.2202-2.0454.01893-2.9094-.27095-1.1632-.64596-2.3744-1.20326-3.4492-.9718.5136-1.08518 1.7004-1.03349 2.6286Z"/><path fill="#868C98" d="M4.49975 24.968c1.32365.7355 2.64348 1.6034 3.87063 2.527-.7349.9677-2.20381.5818-3.11438.2708-1.60463-.5482-3.0352-1.9931-3.7824-3.5985.94737-.488 2.24425.3662 3.02615.8007ZM9.91278 27.2206c.79442 1.4498 2.60482 2.3956 4.30962 2.6233.1835-1.054-.957-2.0976-1.5784-2.7803-.8848-.9719-1.8068-1.9806-2.84052-2.821-.77446.8992-.36502 2.1124.1093 2.978Z"/><path fill="#868C98" d="M8.7782 29.0581c1.8058.1877 3.6423.458 5.4471.7697-.1723 1.3299-2.2827 1.5445-3.2408 1.623-1.96437.161-4.14964-.6286-5.67124-1.958.75575-.8892 2.50301-.5347 3.46494-.4347ZM12.2565 1.99943c-1.2124.34588-2.63157 1.00204-3.33264 2.2133 1.27254-.1387 2.52324-.5915 3.74634-.9365 1.3701-.38648 2.8127-.67553 4.1391-1.20899-1.4527-.58119-3.1651-.46372-4.5528-.06781Z"/><path fill="#868C98" fill-rule="evenodd" d="M35.712 18.5337c1.0135-6.3421-1.9448-12.60712-7.8566-15.29688l.0552-.12116c5.9719 2.71708 8.955 9.04404 7.9327 15.43904-1.1327 7.0889-6.8552 11.3349-13.8408 11.5394l-.0038-.1331c6.9315-.2029 12.5916-4.4109 13.7133-11.4273Z" clip-rule="evenodd"/><path fill="#868C98" d="M29.2055 4.74766c1.1035.02516 2.3951.6475 3.1575 1.55145-.6113.56756-1.595.35774-2.3023.24166-1.0102-.16563-2.0844-.48652-3.0372-.94075.3917-.83421 1.4471-.86908 2.182-.85236Z"/><path fill="#868C98" d="M30.0734 3.38623c.6538 1.01827 1.4328 2.03029 2.2802 2.92149.7096-.66582.2814-1.77385-.0082-2.46289-.5242-1.24856-1.7815-2.32524-3.0963-2.876141-.3608.820801.4232 1.792551.8243 2.417541ZM32.3995 7.60315c1.0333.36734 1.9211 1.40138 2.3669 2.43955-.7432.3454-1.5879-.15348-2.2058-.48568-.8486-.45616-1.7142-1.08557-2.3951-1.81395.6152-.64938 1.5498-.38301 2.234-.13992Z"/><path fill="#868C98" d="M33.6519 6.58564c.2262 1.16138.6052 2.36513 1.1034 3.46226.8695-.41001.8364-1.58441.7989-2.33177-.0635-1.27564-.7768-2.73032-1.7705-3.65479-.6085.65214-.2758 1.7845-.1318 2.5243ZM34.3873 11.2897c.8613.6792 1.3832 1.9381 1.504 3.0622-.8143.0936-1.4654-.6477-1.9498-1.1563-.6598-.6925-1.2844-1.561-1.6805-2.4696.7762-.4237 1.5658.1212 2.1263.5637Z"/><path fill="#868C98" d="M35.8797 10.7162c-.1539 1.1727-.1539 2.4416-.0005 3.6373.9473-.1163 1.2618-1.2538 1.4471-1.9673.3206-1.2317.1054-2.82264-.5186-4.01999-.7801.43184-.8303 1.60039-.928 2.34999ZM35.0632 15.3137c.6814.9981.9208 2.5623.6146 3.8195-.9004-.2131-1.3468-1.2325-1.7054-1.9525-.4761-.9569-.8789-2.0732-1.0229-3.1684.9766-.2033 1.6651.6438 2.1137 1.3014Z"/><path fill="#868C98" d="M36.8519 15.2128c-.5308 1.229-.9451 2.5818-1.1873 3.9174 1.0322.2219 1.7754-.8625 2.2074-1.5815.7685-1.2799.9926-3.0542.7112-4.5853-.9451.1895-1.408 1.5007-1.7313 2.2494ZM34.5865 19.6563c.3658 1.2109.112 2.8569-.629 3.9952-.8138-.5299-.9269-1.6964-1.0422-2.5328-.1517-1.1036-.2234-2.3262-.0348-3.4707 1.0411.1329 1.4616 1.1995 1.706 2.0083Z"/><path fill="#868C98" d="M36.3956 20.1747c-.9131 1.0482-1.7556 2.2432-2.4508 3.469.9424.5884 2.0486-.2154 2.7195-.7842 1.1895-1.0091 1.9625-2.7241 2.1456-4.341-.9903-.1331-1.8631 1.0239-2.4143 1.6562ZM32.6665 23.7775c-.0784 1.4094-.9959 2.8883-2.2174 3.73-.5903-.8077-.2201-2.0454-.0193-2.9094.2709-1.1632.6461-2.3744 1.2033-3.4492.9721.5136 1.0852 1.7004 1.0334 2.6286Z"/><path fill="#868C98" d="M34.3101 24.968c-1.3236.7355-2.6433 1.6034-3.8704 2.527.7349.9677 2.2036.5818 3.114.2708 1.6049-.5482 3.0355-1.9931 3.7826-3.5985-.9473-.488-2.2444.3662-3.0262.8007ZM28.8971 27.2206c-.7945 1.4498-2.6047 2.3956-4.3097 2.6233-.1835-1.054.9569-2.0976 1.5787-2.7803.8844-.9719 1.8063-1.9806 2.8402-2.821.7747.8992.3647 2.1124-.1092 2.978Z"/><path fill="#868C98" d="M30.0314 29.0581c-1.8057.1877-3.6419.458-5.447.7697.1723 1.3299 2.2829 1.5445 3.2407 1.623 1.9647.161 4.1501-.6286 5.6712-1.958-.7553-.8892-2.5026-.5347-3.4649-.4347ZM26.5534 1.99943c1.2121.34588 2.6317 1.00204 3.3324 2.2133-1.2723-.1387-2.5231-.5915-3.7462-.9365-1.3701-.38648-2.8127-.67553-4.1391-1.20899 1.4527-.58119 3.1651-.46372 4.5529-.06781ZM20.1933 1.37263 19.5713 0l-.6104 1.34709-1.4195-.880111.9121 1.916851h2.2685l.8792-1.916851-1.4079.905651ZM20.7074 2.6817h-2.272v.33528h2.272V2.6817ZM19.7337 28.6189l.3662 1.1267h1.1847l-.9585.6964.3661 1.1267-.9585-.6963-.9584.6963.3661-1.1267-.9584-.6964h1.1847l.366-1.1267Z"/></svg>