<svg xmlns="http://www.w3.org/2000/svg" width="66" height="32" fill="none"><g fill="#868C98" clip-path="url(#a)"><path d="M60.1287 5.47111c.2888-1.20864-.2984-2.33645-.9101-3.25068C58.5451 1.21392 57.4199.321488 56.163 0c.2277 1.14069.8922 2.1248 1.5322 3.05027.6356.91929 1.4371 1.85049 2.4335 2.42084ZM6.10791 2.21922c-.61283.91371-1.20119 2.04108-.91319 3.24994.99684-.56953 1.79945-1.50013 2.4358-2.41898.64067-.92487 1.30627-1.90862 1.53466-3.04908137C7.9081.321694 6.78252 1.2133 6.10791 2.21922Z"/><path d="M4.3177 7.78801c.22481-.95732.21983-2.00536.0058-2.90329-.1882-.78914-.46206-1.90467-1.36342-2.28108-.65518 1.05094-.91855 2.48208-.53671 3.55445.2761.77567.77261 1.80123 1.80234 1.95997.9449.21782 1.90036-.28622 2.65496-.70237.83907-.46266 1.66095-1.19873 2.1603-2.07382-.91602-.46236-1.95922-.08714-2.74404.27245-.84599.38764-1.62314 1.21934-1.97923 2.17369ZM22.6553 3.90131v4.8064h-1.6409V6.96274H18.553v1.74497h-1.6409v-4.8064h1.6409v1.75114h2.4614V3.90131h1.6409ZM28.0965 3.90131h1.8123l-2.5715 3.22061v1.58579h-1.647V7.12802l-2.541-3.22671h1.8674l1.5185 1.92253 1.5613-1.92253Z"/><path fill-rule="evenodd" d="M36.1319 5.63407c0-.63062-.1836-1.06538-.5082-1.32257-.3122-.2755-.8143-.41019-1.4755-.41019h-3.7289v4.8064h1.6471V7.36073s1.8858.0061 2.1062 0c.7103-.00618 1.2552-.17756 1.5858-.55717.2449-.26947.3735-.65518.3735-1.16949Zm-1.6531.02448c0 .15308-.0245.2633-.0735.34903-.098.15307-.3.23263-.6429.23263h-1.7082V5.06462h1.7205c.3183 0 .5143.07352.6184.2266.055.07345.0857.20815.0857.36733Z" clip-rule="evenodd"/><path d="M41.8508 7.51373v1.19398h-5.0634v-4.8064h5.021v1.20007h-3.4047v.61842h3.3064v1.16941h-3.3064v.62452h3.4471Z"/><path fill-rule="evenodd" d="M48.323 5.36467c0-.43475-.1035-.74701-.3245-.97354-.2872-.30616-.7836-.48982-1.5427-.48982h-3.8266v4.8064h1.635v-1.696h1.4876l1.1937 1.696h1.8247l-1.4511-1.9593c.3244-.04897.5879-.24491.759-.47754.1534-.21433.2449-.53269.2449-.9062Zm-1.5918.15308c0 .07956-.0119.17757-.0551.25102-.061.12249-.2203.17146-.4837.17146h-1.9223v-.87561h1.8918c.2575 0 .4286.04286.5142.20204.0432.06125.0551.15926.0551.25109Z" clip-rule="evenodd"/><path d="M40.9741 14.7362c0-1.0987-.698-1.6761-2.326-1.8525-.2646-.0321-1.0425-.1123-1.5317-.1525-1.2591-.1363-1.636-.2084-1.636-.5292 0-.2887.2967-.425 1.4274-.425.802 0 1.2512.1523 1.4275.3849.0883.1123.1204.2005.1284.2887h2.3097c-.0242-.1925-.1043-.4652-.2327-.7057-.4169-.802-1.4194-1.4436-3.5767-1.4436-2.43 0-3.7612.8582-3.7612 1.9809 0 1.0826.7538 1.7162 2.7908 1.9007.2351.0201.7456.0683 1.155.107l.0045.0005.0018.0001.2181.0207c1.0666.1123 1.3553.1844 1.3553.5213 0 .3127-.2807.4811-1.4595.4811-.9143 0-1.4516-.1364-1.6441-.3689-.0801-.0962-.1363-.2406-.1523-.3368h-2.3097c.0241.1603.0642.417.1524.6255.393.8822 1.4195 1.5558 3.8013 1.5558 2.5582 0 3.8577-.7218 3.8577-2.053Z"/><path fill-rule="evenodd" d="M24.9613 14.9126c0 .433-.1202.8581-.3608 1.1388-.3689.449-1.0586.6416-1.9488.6416H17.062v-6.2955h5.4373c.8661 0 1.4195.2085 1.7242.5213.2727.2727.393.6336.393 1.0426 0 .409-.0963.7458-.3048.9944-.1684.2085-.4571.3689-.7618.409.449.0561.8741.2806 1.1147.5934.2005.2326.2967.5855.2967.9544Zm-2.7026-2.2054c.0802-.0882.1283-.2165.1283-.3689s-.0481-.2807-.1524-.3689c-.1122-.1043-.3207-.1444-.6255-.1444h-2.446v1.0265h2.5021c.2727 0 .4812-.0401.5935-.1443Zm-.3609 2.5583c.3769 0 .6015-.0482.7298-.1684.0802-.0803.1123-.2005.1123-.3529 0-.1604-.0401-.2807-.1364-.377-.1202-.1042-.3288-.1523-.6816-.1523h-2.7588v1.0506h2.7347Z" clip-rule="evenodd"/><path d="M32.5127 15.1291v1.5639h-6.6322v-6.2955h6.5761v1.5719h-4.459v.81h4.3307v1.5317h-4.3307v.818h4.5151ZM48.7777 10.3975v1.5799H46.115v4.7156h-2.1969v-4.7156h-2.6545v-1.5799h7.5141ZM48.5872 22.2402v.0235h-.3535l-.0253-.3404c-.1079.1723-.3364.3791-.8186.3791-.8149 0-1.1937-.4912-1.1937-1.7452 0-.9695.2411-1.7494 1.2361-1.7494.8625 0 1.1252.5645 1.1379 1.172h-.4309c-.0127-.3964-.1898-.7627-.6981-.7627-.6117 0-.7888.3663-.7888 1.3531 0 1.0299.2203 1.3531.7978 1.3531.4048 0 .6415-.2241.7196-.4913v-.6421h-.8707v-.3921h1.2837v.9911c0 .3561.0037.7409.0045.8467v.0046Z"/><path fill-rule="evenodd" d="M18.3501 21.4061h-1.2065l-.2586.8576h-.4525l1.0688-3.4128h.5558l.9997 3.4128H18.6l-.2499-.8576Zm-1.0902-.3835h.9825s-.4008-1.3875-.4051-1.409l-.0212-.1012-.0477-.2263s-.069.3059-.0733.3275c-.0086.0301-.4352 1.409-.4352 1.409Z" clip-rule="evenodd"/><path d="M22.3274 18.8509h.4137l-.8058 3.4128h-.5128s-.5731-2.6544-.5731-2.7665c-.0043.1121-.5904 2.7665-.5904 2.7665h-.5127l-.8058-3.4128h.4653s.6248 2.7018.6248 2.8095c0-.1077.5732-2.8095.5732-2.8095h.5128s.5731 2.7061.5731 2.8095c0-.1034.6377-2.8095.6377-2.8095Z"/><path fill-rule="evenodd" d="M23.3042 21.4061h1.2065l.25.8576h.4568l-.9998-3.4128h-.5559l-1.0686 3.4128h.4524l.2586-.8576Zm1.0988-.3835h-.9824s.4265-1.3789.4352-1.409c.0043-.0216.0732-.3275.0732-.3275l.0364.1722.0326.1553c.0043.0215.405 1.409.405 1.409ZM26.8778 18.8509c.5256 0 .8101.2456.8101.9609 0 .6076-.2284.8101-.4654.879l.655 1.5729h-.474l-.6076-1.4866h-.8273v1.4866h-.431v-3.4128h1.3402Zm-.0646 1.5383c.3404 0 .4222-.1767.4222-.5645 0-.4395-.1293-.5731-.4438-.5731h-.8188v1.1376h.8404ZM30.3242 21.8802c.1723-.2457.2326-.5731.2326-1.3789 0-.7283-.0516-1.0385-.224-1.2884-.1552-.2327-.4912-.362-.9222-.362h-1.1419v3.4128h1.1721c.4395 0 .711-.1465.8834-.3835Zm-.3793-.2414c-.112.1509-.3317.2198-.5946.2198h-.6464v-2.5984h.6378c.2629 0 .4869.069.6032.2284.125.1853.1552.474.1552 1.0127 0 .642-.0344.9738-.1552 1.1375Z" clip-rule="evenodd"/><path d="M35.1033 18.8509h.4136l-.8058 3.4128h-.5128s-.5731-2.6544-.5731-2.7665c-.0043.1121-.5903 2.7665-.5903 2.7665h-.5128l-.8058-3.4128h.4654s.6248 2.7018.6248 2.8095c0-.1077.5731-2.8095.5731-2.8095h.5128s.5731 2.7061.5731 2.8095c0-.1034.6378-2.8095.6378-2.8095ZM36.2788 22.2637v-3.4128h-.4481v3.4128h.4481ZM39.0843 18.8509v3.4128h-.4956l-1.2712-2.6458v2.6458h-.418v-3.4128h.5215l1.241 2.6069v-2.6069h.4223ZM41.8783 22.2637v-3.4128h-.4219v2.6069l-1.2413-2.6069h-.5214v3.4128h.418v-2.6458l1.271 2.6458h.4956ZM42.9358 18.8509v3.4128h-.448v-3.4128h.448ZM45.7414 22.2637v-3.4128h-.422v2.6069l-1.2413-2.6069h-.5216v3.4128h.4182v-2.6458l1.2711 2.6458h.4956ZM21.9946 28.9901l-.4937-1.5198-.4939 1.5198h-1.5979l1.2927.9393-.4937 1.5197 1.2928-.9393 1.2928.9393-.4939-1.5197 1.2928-.9393h-1.598ZM27.2013 27.4705l.5039 1.5197h1.6305l-1.3191.9393.5039 1.5198-1.3192-.9393-1.3192.9393.5039-1.5198-1.3192-.9393h1.6306l.5039-1.5197ZM33.3611 28.9902l-.5039-1.5197-.5039 1.5197h-1.6306l1.3191.9393-.5039 1.5198 1.3193-.9393 1.3191.9393-.5039-1.5198 1.3192-.9393h-1.6305ZM38.5129 27.4705l.5039 1.5197h1.6306l-1.3193.9393.5039 1.5198-1.3191-.9393-1.3192.9393.5039-1.5198-1.3192-.9393h1.6306l.5039-1.5197ZM44.707 28.9902l-.4934-1.5197-.4942 1.5197h-1.5977l1.2926.9393-.4934 1.5198 1.2927-.9393 1.2926.9393-.4941-1.5198 1.2934-.9393H44.707ZM3.64032 11.9429c-1.04841.0253-1.76744-.8627-2.23211-1.5716-.612838-.93467-.734363-2.34609-.35349-3.49966.9667.20034 1.50854 1.20246 1.89738 1.94382.4253.81094.68911 1.81764.69812 2.79224.12011-.9729.67922-1.92035 1.40621-2.43808.69619-.49571 1.62977-1.02125 2.60488-.73757-.2662.92465-.89675 1.77995-1.59532 2.36485-.64863.543-1.47229 1.1936-2.42567 1.146Z"/><path d="M3.95051 15.761c-.97302.1631-1.92215-.4331-2.53856-1.1343-.793602-.9029-1.265787-2.114-1.169489-3.3265.999589.0253 1.756649.8894 2.316209 1.5428.60264.7037 1.0964 1.6296 1.33328 2.5846-.10419-.9518.21536-1.9796.80856-2.6146.57257-.6131 1.37466-1.2812 2.37261-1.174-.02151.9651-.5053 1.8846-1.00428 2.5733-.46512.6418-1.18162 1.4356-2.11833 1.5487Z"/><path d="M5.27829 19.6919c-1.14225.4371-2.22914-.1404-3.12528-.7238C1.03866 18.2426.209191 16.8325 0 15.4732c1.09946-.1366 2.19103.5895 2.94884 1.2787.83364.7581 1.62061 1.5787 2.15873 2.5928-.3642-.9858-.27326-2.1049.20086-3.0451.45351-.8993 1.30739-1.6361 2.33712-1.7275.17949 1.0041-.07978 2.0619-.46795 2.9792-.36644.8658-.96223 1.8091-1.89931 2.1406Z"/><path d="M7.58654 23.3666c.88186-.5272 1.23676-1.6365 1.3818-2.587.15636-1.0252.14966-2.1557-.27609-3.1282-1.02311.2857-1.7254 1.2066-1.95728 2.2152-.24499 1.0656-.03825 2.2013.55769 3.1086-.79219-.9089-1.84558-1.6593-2.85507-2.1855-.9751-.5083-2.17139-1.1214-3.34244-.7511.56469 1.3781 1.77265 2.6612 3.11145 3.192 1.0368.4109 2.29812.8173 3.37994.136Z"/><path d="M11.1247 26.7294c.7683-.7616.7719-2.0166.6425-3.0061-.1453-1.1112-.4706-2.2818-1.1652-3.1935-.99495.5078-1.45732 1.6475-1.42874 2.7127.03178 1.191.68093 2.3726 1.57184 3.1776-1.1164-.7931-2.45132-1.3736-3.70401-1.734l-.06407-.0184c-1.12223-.3232-2.50858-.7224-3.64212-.0983.92815 1.3971 2.65987 2.4463 4.19825 2.7368 1.1459.2162 2.63155.4058 3.59155-.5768Z"/><path d="M16.2257 29.5311c.5657-1.0769.0052-2.3408-.4414-3.275-.5281-1.1044-1.2496-2.2299-2.2822-3.0382-.9914.8545-.8972 2.0771-.6024 3.1396.3505 1.2634 1.5657 2.3404 2.8241 2.9542-1.4574-.5435-3.049-.8697-4.5632-.966l-.1534-.0099c-1.21654-.0792-2.80024-.1824-3.76962.7079 1.46567 1.246 3.54752 1.9649 5.38242 1.9275 1.2296-.025 2.9167-.1705 3.6057-1.4401ZM59.0266 5.61525c.8454.38839 1.6223 1.22113 1.9773 2.17614-.224-.95776-.2181-2.00617-.003-2.90433.1883-.78906.4636-1.9043 1.3656-2.28019.6541 1.05161.9161 2.48305.5328 3.55491-.2768.77566-.7747 1.801-1.8046 1.95877-.9451.21693-1.8999-.28778-2.6538-.70437-.8387-.46333-1.6595-1.2-2.1581-2.07546.9161-.46155 1.9587-.08566 2.7438.27453Z"/><path d="M60.2634 9.17164c.7264.51795 1.2838 1.46496 1.4036 2.43716.0104-.9742.2753-1.97986.701-2.78998.3892-.74114.9325-1.74281 1.8992-1.94248.3795 1.15394.2567 2.56529-.3572 3.49946-.4644.7076-1.1833 1.5938-2.2296 1.57-.9548.0488-1.7794-.6034-2.4283-1.1476-.698-.5854-1.3276-1.44119-1.5926-2.36599.9749-.28309 1.9081.2432 2.6039.73943Z"/><path d="M60.6155 12.815c.5938.6364.9123 1.6663.8059 2.619.2374-.9562.7323-1.8831 1.3366-2.5873.5603-.6529 1.3179-1.5163 2.3181-1.541.0945 1.2126-.3788 2.4234-1.1728 3.3256-.6177.7012-1.568 1.297-2.5414 1.1322-.9362-.1144-1.6514-.9082-2.1157-1.5501-.4987-.689-.9816-1.609-1.0017-2.5741.9979-.1065 1.7994.5622 2.371 1.1757Z"/><path d="M60.0045 16.3014c.4733.9407.5633 2.0601.1979 3.0455.5388-1.0139 1.3269-1.834 2.1611-2.5916.7583-.6887 1.8508-1.4137 2.95-1.2764-.2099 1.3591-1.0411 2.7687-2.1559 3.4932-.896.582-1.9818 1.1583-3.1226.723-.9385-.3309-1.5345-1.2761-1.9007-2.1434-.3877-.9176-.6459-1.9756-.4651-2.9796 1.0292.0922 1.8828.8297 2.3353 1.7293Z"/><path d="M58.5749 19.8674c.2433 1.0651.0357 2.1997-.5596 3.1061.7925-.9074 1.8463-1.6563 2.8554-2.1814.9756-.5076 2.1723-1.1197 3.3429-.7488-.5656 1.3779-1.7749 2.6601-3.1144 3.1899-1.0382.4108-2.3025.817-3.3853.1302-.8767-.5291-1.2294-1.6361-1.3738-2.5848-.1548-1.0254-.1473-2.1558.2791-3.1279 1.0232.2865 1.725 1.2079 1.9557 2.2167Z"/><path d="M53.5383 23.7204c-.1303.9893-.128 2.2442.64 3.0065.9585.9833 2.4446.7947 3.5906.5793 1.539-.2893 3.2715-1.3374 4.201-2.7336-1.1327-.6249-2.5198-.2268-3.6421.0955l-.0647.0184c-1.2525.3593-2.5875.9386-3.7046 1.7306.8916-.8044 1.5412-1.9851 1.574-3.1756.0298-1.0652-.4316-2.2052-1.4259-2.7138-.6958.9112-1.0217 2.0816-1.1683 3.1927Z"/><path d="M49.0746 29.5246c.6876 1.2702 2.3747 1.4169 3.6041 1.4429 1.8352.0386 3.9174-.6788 5.3842-1.9235-.9682-.8908-2.5518-.789-3.7686-.7107l-.154.0098c-1.5144.0952-3.1063.4202-4.5641.9626 1.2591-.6127 2.4751-1.689 2.8271-2.9521.2955-1.0623.3915-2.2848-.5998-3.14-1.0329.8075-1.7555 1.9325-2.2846 3.0365-.445.9286-1.0032 2.1835-.454 3.2571l.0097.0174Z"/></g><defs><clipPath id="a"><path fill="#fff" d="M0 0h65.4884v32H0z"/></clipPath></defs></svg>