<svg xmlns="http://www.w3.org/2000/svg" width="79" height="32" fill="none"><g fill="#868C98" clip-path="url(#a)"><path fill-rule="evenodd" d="M16 0h46.1936c8.8365 0 16 7.16342 16 16 0 8.8366-7.1635 16-16 16H16C7.16342 32 0 24.8366 0 16 0 7.16342 7.16342 0 16 0Zm0 1.54841C8.01859 1.54841 1.54841 8.01859 1.54841 16c0 7.9814 6.47018 14.4516 14.45159 14.4516h46.1936c7.9813 0 14.4514-6.4702 14.4514-14.4516 0-7.98141-6.4701-14.45159-14.4514-14.45159H16Z" clip-rule="evenodd"/><path fill-rule="evenodd" d="M65.9845 24.3639c1.162-2.0627 1.9294-5.0167 1.9294-8.3639 0-3.3472-.7674-6.30116-1.9294-8.364-1.1895-2.1109-2.5903-2.99085-3.7909-2.99085-1.2005 0-2.6019.87995-3.7908 2.99085-1.162 2.06284-1.9294 5.0168-1.9294 8.364 0 3.3472.7674 6.3012 1.9294 8.3639 1.1889 2.111 2.5903 2.9909 3.7908 2.9909 1.2006 0 2.6014-.8799 3.7909-2.9909Zm-3.7909 4.5393c4.0144 0 7.269-5.7769 7.269-12.9032 0-7.12627-3.2546-12.90326-7.269-12.90326-4.0143 0-7.2689 5.77699-7.2689 12.90326 0 7.1263 3.2546 12.9032 7.2689 12.9032Z" clip-rule="evenodd"/><path fill-rule="evenodd" d="M61.4196 27.6989V4.04303h1.5481V27.6989h-1.5481Z" clip-rule="evenodd"/><path d="M39.0234 10.1818c.3335-.0047.6171-.0671.6124-.40991v-.05142c.0047-.34129-.2789-.40364-.6124-.40828-.335.00464-.6187.06699-.614.40828v.05142c-.0047.34281.279.40521.614.40991ZM26.6514 9.31372c.0998 0 .1792.07945.1792.1792 0 .04833-.0171.09037-.0529.12624-.0343.03426-.0764.05142-.1263.05142h-.9958v-.35686h.9958ZM32.4361 9.30902l.2868.6187h-.5751l.2883-.6187ZM45.5173 9.92772l-.2869-.6187-.2883.6187h.5752ZM24.8588 22.3368l-.4238-.9145-.4262.9145h.85ZM34.3708 22.6409c.3132 0 .4906-.2557.4906-.5667 0-.3133-.1774-.5667-.4906-.5667h-1.3223v1.1334h1.3223ZM38.211 21.4223l.4239.9145h-.8501l.4262-.9145ZM43.6269 21.6941c0-.1474-.1175-.2649-.2649-.2649H41.89v.5276h1.472c.0737 0 .1359-.0254.1866-.0761.053-.0529.0783-.1152.0783-.1866ZM48.2323 22.0742c0 .311-.1777.5667-.4911.5667h-1.3224v-1.1334h1.3224c.3134 0 .4911.2534.4911.5667ZM17.7255 12.7548l1.5363 3.5471 1.6116-3.5471h2.5531v5.9119h-1.9129v-3.1932l-1.4008 3.1932h-1.7171L17.01 15.4735v3.1932h-1.9204v-5.9119h2.6359ZM31.2644 18.6667v-1.4686h-4.24v-.7682h4.0668v-1.4384h-4.0668v-.7607h4.1873v-1.476h-6.1755v5.9119h6.2282ZM35.7763 18.7571c-1.2577 0-2.3045-.3766-2.8919-1.1373-.3464-.4443-.5573-1.1146-.5573-1.8978 0-.7079.1807-1.3405.5723-1.8451.595-.7381 1.6719-1.2275 3.2761-1.2275 1.8451 0 2.9295.5648 3.3964 1.5137.0666.1377.1151.3085.1438.463.0167.0905.0267.1754.0295.2449h-1.9506c-.0225-.1054-.128-.2636-.2635-.3765-.2109-.1883-.6628-.3389-1.318-.3389-.7305 0-1.2276.1431-1.5213.4744-.2033.2335-.3088.5875-.3088 1.1071 0 .497.1055.8284.2862 1.0619.2711.3163.7757.5196 1.559.5196.7531 0 1.333-.2259 1.5514-.482.0376-.0434.0719-.0979.1007-.1542.0462-.0901.0783-.1847.0876-.2449h-2.1012v-1.2728h3.9312v3.502h-1.6192l-.0527-.5724c-.0708.0586-.1476.1143-.2306.1667-.4823.3042-1.1746.4961-2.1191.4961Z"/><path d="M34.6279 15.7371c0-.4915.1005-.7757.2479-.9454.2218-.2496.6263-.3912 1.3373-.3912.6322 0 1.0104.1477 1.1548.2766l.0031.0028.0032.0027c.0497.0414.0951.0924.1294.1421.034.0491.0475.0832.0509.0951h-1.9328v1.7626h1.9674c-.0704.0796-.2216.179-.4619.2588-.2392.0794-.5461.1325-.8991.1325-.7441 0-1.1627-.1926-1.3689-.4296-.1349-.1767-.2313-.4478-.2313-.907ZM44.3532 16.0043l.5611-1.0713.5301 1.0713h-1.0912Z"/><path fill-rule="evenodd" d="m46.4789 17.5746.5197 1.0921h2.1766l-2.9827-5.9119h-2.4324l-3.1555 5.9119h2.1313l.5498-1.0921h3.1932Zm-2.5305-1.3254.7456-1.4234.2259-.5422.2109.5347.7081 1.4309h-1.8905Z" clip-rule="evenodd"/><path fill-rule="evenodd" d="M16 28.9032c-4.0649 0-7.69079-1.8797-10.05587-4.8172h6.78697v-.8602H5.30822c-1.10737-1.6353-1.84938-3.5382-2.10891-5.5914h9.53179v-.8602H3.11958c-.01517-.2562-.02284-.5143-.02284-.7742 0-1.703.32988-3.3288.92927-4.8172h8.70509v-.8602H4.40968c.91189-1.85813 2.25738-3.46486 3.90466-4.6882H54.5081C51.3418 7.98574 49.2905 11.7532 49.2905 16c0 2.6773.8154 5.1642 2.2113 7.2258h-.7923v.8602h1.4278c2.3405 2.9064 5.9145 4.7773 9.9272 4.8165v.0007H16ZM37.5928 9.67054c-.0031-.79322.642-1.02075 1.4306-1.02229.7885 0 1.429.23062 1.429 1.02229v.15271c.0031.79165-.6421 1.02075-1.429 1.02225-.7886-.0015-1.4337-.2306-1.4306-1.02225v-.15271ZM14.5257 10.7941V8.69967h.8166v2.09443h-.8166Zm2.3734-2.09443.9195 1.10957V8.69967h.8181v2.09443h-.9194l-1.1252-1.27937v1.27937h-.8166V8.69967h1.1236Zm3.8087 2.09763V9.36665h.9708v-.66384h-2.7582v.66384h.9708v1.43065h.8166Zm3.6965 0H21.953V8.70281h2.4513v.53606h-1.6348v.26803h1.6348v.48468h-1.6348v.26802h1.6348v.5377Zm.4347-2.09609v2.09449h.8166v-.5111h.7294l.3942.5111h.8696l-.4566-.5875c.1371-.0639.2478-.1606.3304-.28674.0841-.12783.1262-.27117.1262-.42858.0062-.43321-.36-.7963-.7917-.79167H24.839Zm4.1874-.00154.9194 1.10957V8.69967h.8182v2.09443h-.9195l-1.1251-1.27937v1.27937h-.8166V8.69967h1.1236Zm1.7999 2.09763h.9195l.1652-.3585h1.0487l.1652.3585h.9195l-1.1236-2.09449h-.9709l-1.1236 2.09449Zm4.4648-1.43065v1.43065h-.8166V9.36665h-.9709v-.66384h2.7583v.66384h-.9708Zm1.2451-.66698v2.09443h.8166V8.69967h-.8166Zm6.2039 1.10957-.9194-1.10957h-1.1236v2.09443h.8166V9.51473l1.1251 1.27937h.9195V8.69967h-.8182v1.10957Zm1.7999.98806h-.9194l1.1236-2.09449h.9711l1.1233 2.09449h-.9192l-.1655-.3585h-1.0487l-.1652.3585Zm2.3626-2.09763v2.09443h2.4513v-.6639h-1.6348V8.69967h-.8165ZM15.8053 21.542c0-.2464.4608-.3018.8363-.3018.3778 0 .698.0576.8362.3018h1.2647c-.1152-.9675-1.0159-1.0896-2.1009-1.0965-1.0874 0-2.101.212-2.101 1.0965-.0023.7725 1.2067.8337 2.0702.8775l.0054.0003c.4861.023.8616.0437.8616.1796 0 .2396-.4607.3018-.8362.3018-.3779 0-.6981-.0622-.8363-.3018h-1.2647c.1152.9607 1.0159 1.092 2.101 1.0943 1.0873 0 2.1009-.2096 2.1009-1.0943.0023-.7747-1.2067-.836-2.0703-.8797l-.0053-.0003c-.4861-.023-.8616-.0414-.8616-.1774Zm5.6164 2.0803v-2.1148h1.4352v-.9813h-4.0775v.9813h1.4352v2.1148h1.2071Zm1.9927 0h-1.3592l1.661-3.0961h1.4352l1.6609 3.0961h-1.3591l-.2442-.5299h-1.5504l-.2442.5299Zm6.5125-1.4606-1.3592-1.6402h-1.6609v3.0962h1.2071v-1.8913l1.6633 1.8913h1.3592v-3.0962h-1.2095v1.6402Zm1.9143 1.4606v-3.0961h2.7553c.85-.0116 1.4813.7026 1.4743 1.548.007.8409-.6243 1.5596-1.4743 1.5481h-2.7553Zm3.99 0h1.3592l.2442-.5299h1.5504l.2442.5299h1.3591l-1.6609-3.0961h-1.4352l-1.661 3.0961Zm4.8516-.0023v-3.0962h2.9833c.6381-.0069 1.1794.5299 1.1702 1.1703 0 .2327-.0622.4446-.1866.6335-.1221.1866-.2856.3294-.4883.4239l.6749.8685h-1.2854l-.5828-.7556H41.89v.7556h-1.2072Zm4.529-3.0938v3.0961h2.7551c.8502.0115 1.4813-.7072 1.4747-1.5481.0066-.8454-.6245-1.5596-1.4747-1.548h-2.7551Zm-23.9431-1.6147h2.4027v-6.4017h-2.9557l-1.4486 3.1882-1.3808-3.1882h-3.0416v6.4017h2.4102V16.653l.9801 2.2585h2.0378l.9959-2.2701v2.2701Zm3.5226 0h6.718v-1.9584h-4.24v-.2783h4.0668v-1.9282h-4.0668v-.2709h4.1873v-1.9659h-6.6653v6.4017Zm13.164 0h2.0875v-3.9917h-.0506l-.0024-.0586c-.0086-.2158-.0749-.5509-.1973-.8046l-.0004-.0008-.0005-.0009c-.5267-1.0707-1.7293-1.6505-3.6162-1.6505-1.6509 0-2.8105.5046-3.4667 1.3188l-.0014.0017-.0014.0018c-.432.5566-.6238 1.2456-.6238 1.9953 0 .8227.2209 1.5503.6087 2.048.652.8438 1.7877 1.2319 3.0854 1.2319.9123 0 1.6207-.1732 2.144-.4705l.0351.3801Zm4.9315 0 .5497-1.092h2.8879l.5192 1.092h2.7293l-3.2292-6.4017h-2.7305l-3.4169 6.4017h2.6905Zm6.6613 7.8842H14.4946v-.8603h35.0535v.8603Z" clip-rule="evenodd"/><path d="M55.8267 4.77415c1.8439-1.04784 3.9708-1.65457 6.2378-1.6768v-.00061H16c-2.3152 0-4.488.60971-6.36658 1.67741H55.8267Z"/><path d="M62.1936 27.3548c6.2709 0 11.3545-5.0838 11.3545-11.3548 0-6.27115-5.0836-11.3549-11.3545-11.3549-4.203 0-7.8725 2.28348-9.8361 5.6775h-1.648v.8602h1.1989c-.6863 1.4624-1.0698 3.095-1.0698 4.8172 0 2.745.9744 5.2625 2.5953 7.2258h-1.9321c-1.3959-2.0616-2.2113-4.5485-2.2113-7.2258 0-7.12632 5.7765-12.90326 12.9031-12.90326 7.1261 0 12.9032 5.77694 12.9032 12.90326 0 7.1262-5.7771 12.9032-12.9032 12.9032-4.0651 0-7.691-1.8797-10.0562-4.8172h2.0844c2.0502 2.0213 4.8651 3.2688 7.9718 3.2688Z"/><path d="M65.6027 23.2258H52.1721v-1.5484h14.0364c-.1793.5548-.3829 1.0727-.6058 1.5484ZM66.5457 23.2258h5.7555v-1.5484h-5.1906c-.1666.5473-.3564 1.0649-.5649 1.5484ZM67.0395 16.7742H50.0646v-1.5484h16.9749c.0094.2551.0143.5133.0143.7742s-.0049.5191-.0143.7742ZM67.9001 16.7742h6.4442v-1.5484h-6.4442c.0094.2555.0138.5137.0138.7742 0 .2605-.0044.5187-.0138.7742ZM66.2091 10.3226h-14.037V8.77423h13.4306c.2229.47564.4265.99355.6064 1.54837ZM67.1106 10.3226h5.1906V8.77423h-5.7555c.2085.48353.3983 1.0011.5649 1.54837Z"/></g><defs><clipPath id="a"><path fill="#fff" d="M0 0h78.3448v32H0z"/></clipPath></defs></svg>